<svg width="611" height="61" viewBox="0 0 611 61" fill="none" xmlns="http://www.w3.org/2000/svg">
<path d="M408.914 47.4142C409.695 46.6331 409.695 45.3668 408.914 44.5857L396.186 31.8578C395.405 31.0768 394.139 31.0768 393.358 31.8578C392.577 32.6389 392.577 33.9052 393.358 34.6862L404.672 45.9999L393.358 57.3137C392.577 58.0947 392.577 59.361 393.358 60.1421C394.139 60.9231 395.405 60.9231 396.186 60.1421L408.914 47.4142ZM24 45.9999L24 43.9999L24 45.9999ZM24 3.99995L611 4L611 0L24 -5.13172e-05L24 3.99995ZM407.5 43.9999L24 43.9999L24 47.9999L407.5 47.9999L407.5 43.9999ZM4 23.9999C4 12.9543 12.9543 3.99995 24 3.99995L24 -5.13172e-05C10.7452 -5.24759e-05 3.08208e-06 10.7451 1.9233e-06 23.9999L4 23.9999ZM1.9233e-06 23.9999C7.64527e-07 37.2548 10.7452 47.9999 24 47.9999L24 43.9999C12.9543 43.9999 4 35.0456 4 23.9999L1.9233e-06 23.9999Z" fill="black"/>
</svg>
